<mxfile host="app.diagrams.net" agent="Mozilla/5.0 (Windows NT 10.0; Win64; x64) AppleWebKit/537.36 (KHTML, like Gecko) Chrome/127.0.0.0 Safari/537.36" version="24.7.7">
  <diagram name="Sayfa -1" id="JtWF4t9PHhsfVD3rAMcz">
    <mxGraphModel dx="2713" dy="814" grid="1" gridSize="10" guides="1" tooltips="1" connect="1" arrows="1" fold="1" page="1" pageScale="1" pageWidth="827" pageHeight="1169" math="0" shadow="0">
      <root>
        <mxCell id="0" />
        <mxCell id="1" parent="0" />
        <mxCell id="RCGrE6LtfKwpIdJ4ooIq-10" style="edgeStyle=orthogonalEdgeStyle;rounded=0;orthogonalLoop=1;jettySize=auto;html=1;exitX=1;exitY=0.25;exitDx=0;exitDy=0;entryX=0;entryY=0.5;entryDx=0;entryDy=0;" edge="1" parent="1" source="RCGrE6LtfKwpIdJ4ooIq-1" target="RCGrE6LtfKwpIdJ4ooIq-4">
          <mxGeometry relative="1" as="geometry" />
        </mxCell>
        <mxCell id="RCGrE6LtfKwpIdJ4ooIq-11" style="edgeStyle=orthogonalEdgeStyle;rounded=0;orthogonalLoop=1;jettySize=auto;html=1;exitX=1;exitY=0.75;exitDx=0;exitDy=0;entryX=0;entryY=0;entryDx=0;entryDy=0;" edge="1" parent="1" source="RCGrE6LtfKwpIdJ4ooIq-1" target="RCGrE6LtfKwpIdJ4ooIq-5">
          <mxGeometry relative="1" as="geometry">
            <mxPoint x="560" y="690" as="targetPoint" />
            <Array as="points">
              <mxPoint x="474" y="600" />
              <mxPoint x="561" y="600" />
              <mxPoint x="561" y="652" />
            </Array>
          </mxGeometry>
        </mxCell>
        <mxCell id="RCGrE6LtfKwpIdJ4ooIq-12" style="edgeStyle=orthogonalEdgeStyle;rounded=0;orthogonalLoop=1;jettySize=auto;html=1;exitX=0.5;exitY=1;exitDx=0;exitDy=0;" edge="1" parent="1" source="RCGrE6LtfKwpIdJ4ooIq-1" target="RCGrE6LtfKwpIdJ4ooIq-6">
          <mxGeometry relative="1" as="geometry" />
        </mxCell>
        <mxCell id="RCGrE6LtfKwpIdJ4ooIq-13" style="edgeStyle=orthogonalEdgeStyle;rounded=0;orthogonalLoop=1;jettySize=auto;html=1;exitX=0;exitY=0.75;exitDx=0;exitDy=0;" edge="1" parent="1" source="RCGrE6LtfKwpIdJ4ooIq-1" target="RCGrE6LtfKwpIdJ4ooIq-7">
          <mxGeometry relative="1" as="geometry">
            <Array as="points">
              <mxPoint x="190" y="540" />
              <mxPoint x="190" y="660" />
            </Array>
          </mxGeometry>
        </mxCell>
        <mxCell id="RCGrE6LtfKwpIdJ4ooIq-14" style="edgeStyle=orthogonalEdgeStyle;rounded=0;orthogonalLoop=1;jettySize=auto;html=1;exitX=0;exitY=0;exitDx=0;exitDy=0;" edge="1" parent="1" source="RCGrE6LtfKwpIdJ4ooIq-1" target="RCGrE6LtfKwpIdJ4ooIq-2">
          <mxGeometry relative="1" as="geometry">
            <Array as="points">
              <mxPoint x="314" y="410" />
            </Array>
          </mxGeometry>
        </mxCell>
        <mxCell id="RCGrE6LtfKwpIdJ4ooIq-1" value="MaÄŸaza" style="rounded=0;whiteSpace=wrap;html=1;" vertex="1" parent="1">
          <mxGeometry x="314" y="480" width="160" height="80" as="geometry" />
        </mxCell>
        <mxCell id="RCGrE6LtfKwpIdJ4ooIq-2" value="" style="ellipse;whiteSpace=wrap;html=1;" vertex="1" parent="1">
          <mxGeometry x="-90" y="170" width="160" height="110" as="geometry" />
        </mxCell>
        <mxCell id="RCGrE6LtfKwpIdJ4ooIq-3" value="" style="ellipse;whiteSpace=wrap;html=1;" vertex="1" parent="1">
          <mxGeometry x="370" y="90" width="160" height="90" as="geometry" />
        </mxCell>
        <mxCell id="RCGrE6LtfKwpIdJ4ooIq-4" value="User" style="ellipse;whiteSpace=wrap;html=1;" vertex="1" parent="1">
          <mxGeometry x="827" y="250" width="193" height="100" as="geometry" />
        </mxCell>
        <mxCell id="RCGrE6LtfKwpIdJ4ooIq-5" value="" style="ellipse;whiteSpace=wrap;html=1;" vertex="1" parent="1">
          <mxGeometry x="820" y="790" width="170" height="100" as="geometry" />
        </mxCell>
        <mxCell id="RCGrE6LtfKwpIdJ4ooIq-6" value="" style="ellipse;whiteSpace=wrap;html=1;" vertex="1" parent="1">
          <mxGeometry x="270" y="880" width="190" height="90" as="geometry" />
        </mxCell>
        <mxCell id="RCGrE6LtfKwpIdJ4ooIq-7" value="" style="ellipse;whiteSpace=wrap;html=1;" vertex="1" parent="1">
          <mxGeometry x="-190" y="670" width="180" height="90" as="geometry" />
        </mxCell>
        <mxCell id="RCGrE6LtfKwpIdJ4ooIq-15" style="edgeStyle=orthogonalEdgeStyle;rounded=0;orthogonalLoop=1;jettySize=auto;html=1;exitX=0.75;exitY=0;exitDx=0;exitDy=0;entryX=0.45;entryY=0.963;entryDx=0;entryDy=0;entryPerimeter=0;" edge="1" parent="1" source="RCGrE6LtfKwpIdJ4ooIq-1" target="RCGrE6LtfKwpIdJ4ooIq-3">
          <mxGeometry relative="1" as="geometry" />
        </mxCell>
      </root>
    </mxGraphModel>
  </diagram>
</mxfile>
